<?xml version="1.0" encoding="UTF-8"?>
<svg version="1.1" xmlns="http://www.w3.org/2000/svg" width="601" height="180">
<path d="M0 0 C42.24 0 84.48 0 128 0 C128 13.2 128 26.4 128 40 C121.4 40 114.8 40 108 40 C104.70690959 33.41381918 106.36771934 25.35438677 106 18 C84.88 18 63.76 18 42 18 C42 35.49 42 52.98 42 71 C62.79 71 83.58 71 105 71 C105 76.94 105 82.88 105 89 C84.21 89 63.42 89 42 89 C42 108.14 42 127.28 42 147 C63.45 147 84.9 147 107 147 C107.66 139.74 108.32 132.48 109 125 C115.6 125 122.2 125 129 125 C129 138.53 129 152.06 129 166 C86.43 166 43.86 166 0 166 C0 160.72 0 155.44 0 150 C6.27 149.01 12.54 148.02 19 147 C19 104.43 19 61.86 19 18 C15.37 17.67 11.74 17.34 8 17 C5.31926549 16.39236684 2.64485144 15.74854286 0 15 C0 10.05 0 5.1 0 0 Z " fill="#03A9F4" transform="translate(0,12)"/>
<path d="M0 0 C13.53 0 27.06 0 41 0 C41 52.47 41 104.94 41 159 C45.62 159.66 50.24 160.32 55 161 C56.65 161.33 58.3 161.66 60 162 C60 167.28 60 172.56 60 178 C47.13 178 34.26 178 21 178 C20.34 174.04 19.68 170.08 19 166 C18.01 166.886875 17.02 167.77375 16 168.6875 C4.6224369 178.31641568 -7.08472785 181.21481855 -22 180 C-33.52240693 178.31379411 -43.70152239 173.22637736 -51 164 C-64.23828314 144.92789717 -65.66598172 120.47712134 -62.17944336 98.00219727 C-59.39568021 83.28696228 -52.63595169 67.28245199 -39.90625 58.56640625 C-28.33889192 51.70337866 -15.65536394 50.08193107 -2.51953125 52.69140625 C5.47540358 55.11319259 11.15381494 59.15381494 17 65 C17 49.82 17 34.64 17 19 C11.39 18.01 5.78 17.02 0 16 C0 10.72 0 5.44 0 0 Z M-28.3046875 77.90234375 C-39.47018978 91.7177233 -41.62960424 110.83458447 -40 128 C-38.42846438 139.22419041 -35.11804956 149.04909262 -26.125 156.4375 C-18.9462459 161.35501467 -11.00065196 161.88329597 -2.55859375 160.640625 C5.58975478 158.75337057 11.84330727 153.50636867 16.6058197 146.70759583 C18.17716249 143.65593802 18.3958602 141.7397322 18.43579102 138.3269043 C18.45493057 137.21192062 18.47407013 136.09693695 18.49378967 134.94816589 C18.49712814 133.75226334 18.50046661 132.55636078 18.50390625 131.32421875 C18.51389145 130.08509232 18.52387665 128.84596588 18.53416443 127.56929016 C18.54934221 124.94930355 18.55639033 122.32925904 18.5559082 119.70922852 C18.5556643 117.03282899 18.57649619 114.35796861 18.61743164 111.68188477 C18.67252565 107.81218648 18.68712281 103.94427065 18.69140625 100.07421875 C18.7129628 98.88438889 18.73451935 97.69455902 18.75672913 96.46867371 C18.70154714 89.74607453 17.99171289 85.62594464 13.51364136 80.48796082 C7.14569506 74.22805353 0.06334794 71.03181232 -8.875 70.6875 C-16.1976707 70.87640046 -22.89564529 72.7826224 -28.3046875 77.90234375 Z " fill="#03A9F4" transform="translate(307,0)"/>
<path d="M0 0 C1.52222168 -0.00302124 1.52222168 -0.00302124 3.07519531 -0.00610352 C15.69077931 0.64971425 25.67848227 7.53474482 35.86914062 14.45361328 C38.82426443 16.42785857 38.82426443 16.42785857 41.99023438 17.87060547 C50.71213792 22.10881065 55.63420659 27.91513427 59.12683105 36.86151123 C61.4210907 44.56912312 61.18943451 52.72488463 61.04833984 60.69311523 C60.99997442 63.9392165 61.04810833 67.17415582 61.10546875 70.41992188 C61.14660596 83.58206636 59.58619704 93.21665734 50.875 103.375 C48.65154954 105.60164758 46.5534245 107.09583819 43.75 108.5 C42.35268281 109.27050378 40.95555921 110.04135869 39.55859375 110.8125 C38.8094873 111.21082031 38.06038086 111.60914063 37.28857422 112.01953125 C34.61544318 113.5207677 32.08883541 115.17893029 29.53515625 116.875 C17.5148504 124.65052167 6.38593538 129.82080241 -8.16308594 127.21240234 C-17.13348221 124.67626162 -24.86799708 119.21757916 -32.51660156 114.05761719 C-35.30141821 112.26119672 -38.09996646 110.80296518 -41.13623047 109.48681641 C-50.04062658 104.92514732 -55.06432059 97.73757304 -58.125 88.375 C-59.4820297 81.18706294 -59.42460665 73.91911852 -59.29833984 66.62963867 C-59.24998094 63.31119203 -59.29810342 60.00366527 -59.35546875 56.68554688 C-59.39732355 44.67597077 -58.70878358 34.16749616 -50.5390625 24.79348755 C-46.39179956 20.63324652 -41.51359468 17.98913116 -36.3125 15.375 C-34.09757802 14.18764593 -31.88273389 13.0001466 -29.66796875 11.8125 C-28.57774414 11.25127441 -27.48751953 10.69004883 -26.36425781 10.11181641 C-23.13997747 8.38303058 -20.08885453 6.47552415 -16.99609375 4.5234375 C-11.29714734 1.19098291 -6.57660949 -0.00843155 0 0 Z M-10.78491211 25.0534668 C-15.0278285 27.73476966 -18.86713943 29.70959419 -23.6953125 31.12890625 C-29.98178564 33.30012462 -34.86626972 35.3012694 -38.125 41.375 C-41.35732835 55.75560178 -39.29691094 71.82527489 -38.125 86.375 C-37.40022461 86.79273682 -36.67544922 87.21047363 -35.92871094 87.64086914 C-33.17759232 89.22672315 -30.42663618 90.81285856 -27.67578125 92.39916992 C-25.92459985 93.40890074 -24.17324002 94.41832207 -22.421875 95.42773438 C-21.2875 96.08193359 -20.153125 96.73613281 -18.984375 97.41015625 C-17.84548828 98.06129395 -16.70660156 98.71243164 -15.53320312 99.38330078 C-13.25249811 100.7161082 -10.99546342 102.09023096 -8.76367188 103.50341797 C-7.71244141 104.16100098 -6.66121094 104.81858398 -5.578125 105.49609375 C-4.64645508 106.09736084 -3.71478516 106.69862793 -2.75488281 107.31811523 C-0.16510709 108.6639345 -0.16510709 108.6639345 2.4765625 107.68188477 C3.26804687 107.25061279 4.05953125 106.81934082 4.875 106.375 C5.84034668 105.88676758 5.84034668 105.88676758 6.82519531 105.38867188 C7.44491211 105.04384766 8.06462891 104.69902344 8.703125 104.34375 C9.78207031 103.74433594 9.78207031 103.74433594 10.8828125 103.1328125 C11.62273437 102.71773438 12.36265625 102.30265625 13.125 101.875 C13.81851563 101.49085938 14.51203125 101.10671875 15.2265625 100.7109375 C16.79035259 99.83850724 18.33887916 98.93842244 19.87524414 98.01855469 C22.30596254 96.68677343 24.6325469 95.6327237 27.18530273 94.58300781 C35.46170666 90.96040364 35.46170666 90.96040364 40.93011475 84.10839844 C42.74086644 77.52881019 42.64756281 70.89584442 42.4375 64.125 C42.42906067 63.10443512 42.42062134 62.08387024 42.41192627 61.03237915 C42.24735447 48.94954533 42.24735447 48.94954533 37.67041016 38.04248047 C32.19449237 33.09277109 25.84113158 30.62288565 18.88037109 28.40283203 C14.72682782 26.98232698 11.24149847 24.85270578 7.5625 22.5 C-0.24088745 17.9120305 -3.6813062 20.48758762 -10.78491211 25.0534668 Z " fill="#3FC7F9" transform="translate(436.125,53.625)"/>
<path d="M0 0 C0.61705811 0.24999756 1.23411621 0.49999512 1.86987305 0.75756836 C4.20217684 1.9493842 5.44415746 2.87187822 7 5 C8.02395078 9.91927348 7.98109712 14.80958143 7.9375 19.8125 C7.95061712 21.18688274 7.96686109 22.56123941 7.98632812 23.93554688 C8.02164007 27.29018183 8.0148724 30.64521216 8 34 C2.06 34 -3.88 34 -10 34 C-10.45375 31.64875 -10.9075 29.2975 -11.375 26.875 C-12.62826838 21.65146669 -13.81976988 18.18092426 -18.5625 15.1875 C-27.84303537 10.86021225 -38.49825271 9.45746149 -48.328125 12.7890625 C-52.62648883 14.74720602 -55.40656555 16.95424225 -58 21 C-59.70931268 26.12793803 -59.7396672 30.28531694 -57.625 35.1875 C-51.25918454 42.00801656 -42.13249006 43.99034923 -33.3125 45.9375 C-2.37141686 53.265901 -2.37141686 53.265901 7 65.5625 C12.08674716 74.30534668 12.60928044 85.02323931 10.34765625 94.828125 C6.71337017 103.75006337 -0.56514745 110.60657603 -9 115 C-27.86221835 122.69735899 -50.92706036 122.26917169 -69.73193359 114.38305664 C-74.00094382 112.49949813 -78.10501775 110.59665483 -82 108 C-82.34057617 105.01904297 -82.34057617 105.01904297 -82.29296875 101.2421875 C-82.28872391 100.57913605 -82.28447906 99.91608459 -82.28010559 99.23294067 C-82.26329971 97.11321559 -82.22564701 94.99443812 -82.1875 92.875 C-82.17245549 91.43881581 -82.15876668 90.00261672 -82.14648438 88.56640625 C-82.11593991 85.04361126 -82.0572307 81.52286731 -82 78 C-76.06 78 -70.12 78 -64 78 C-63.34 80.7225 -62.68 83.445 -62 86.25 C-60.47525249 92.13521015 -60.47525249 92.13521015 -57.02734375 96.984375 C-54.98285267 97.97795945 -53.22777459 98.57481837 -51 99 C-50.07900513 99.25172974 -50.07900513 99.25172974 -49.1394043 99.50854492 C-40.11025964 101.58268257 -28.14856996 101.29191752 -19.8203125 97.21484375 C-16.54667821 95.03007924 -14.73022145 92.46044289 -13 89 C-12.43649274 84.38108804 -12.5577121 80.90158688 -14.625 76.6875 C-21.70139909 68.67999577 -31.92364166 66.75025782 -41.91772461 64.24438477 C-56.00442135 60.69366945 -71.64727252 56.66951617 -80 43.75 C-84.38707177 36.13355596 -84.28958067 25.64774187 -82.3515625 17.16015625 C-78.26747133 7.22918242 -69.87062344 -0.04600943 -60.15625 -4.22265625 C-40.9604874 -11.42106723 -18.13598162 -9.50818454 0 0 Z " fill="#03A9F4" transform="translate(590,60)"/>
<path d="M0 0 C-0.99 6.93 -1.98 13.86 -3 21 C-7.1765625 20.9071875 -7.1765625 20.9071875 -11.4375 20.8125 C-19.5473334 20.74937999 -25.87345321 21.34066984 -32.8125 25.8125 C-37.63290106 30.63290106 -39.49722596 34.36024777 -39.54589844 41.19873047 C-39.55623611 41.89211014 -39.56657379 42.58548981 -39.57722473 43.29988098 C-39.60652473 45.57255714 -39.60814908 47.84433778 -39.609375 50.1171875 C-39.62436543 51.70046677 -39.6410944 53.28373045 -39.65948486 54.86697388 C-39.70307425 59.01962016 -39.72313861 63.17205552 -39.73822021 67.32489014 C-39.75782182 71.56828235 -39.79978833 75.81144779 -39.83984375 80.0546875 C-39.91505487 88.36975997 -39.96333238 96.68466814 -40 105 C-34.06 105.99 -28.12 106.98 -22 108 C-22 113.28 -22 118.56 -22 124 C-41.8 124 -61.6 124 -82 124 C-82 118.72 -82 113.44 -82 108 C-79.421875 107.505 -76.84375 107.01 -74.1875 106.5 C-73.37949951 106.34337891 -72.57149902 106.18675781 -71.73901367 106.02539062 C-68.77959587 105.46402571 -66.01877934 105 -63 105 C-63 76.62 -63 48.24 -63 19 C-72.405 17.515 -72.405 17.515 -82 16 C-82 10.72 -82 5.44 -82 0 C-68.8 0 -55.6 0 -42 0 C-41.34 4.95 -40.68 9.9 -40 15 C-39.030625 13.63875 -38.06125 12.2775 -37.0625 10.875 C-28.49505622 -0.11555919 -13.28067977 -6.64033989 0 0 Z " fill="#03A9F4" transform="translate(232,54)"/>
<path d="M0 0 C-1.24441309 3.73323926 -2.72687968 4.59860164 -5.8125 7 C-10.05441363 10.37924466 -14.09508061 13.86723492 -18.0625 17.5625 C-19.08435089 18.48729366 -20.10648287 19.41177682 -21.12890625 20.3359375 C-23.96919526 22.90090216 -23.96919526 22.90090216 -26.27734375 25.4765625 C-31.20551103 30.37874648 -35.0445244 31.41527288 -41.83007812 31.53833008 C-45.89688552 31.48255713 -49.94453634 31.30696377 -54 31 C-54 28 -54 28 -52.71484375 26.45703125 C-52.12832031 25.91433594 -51.54179687 25.37164062 -50.9375 24.8125 C-48.43738662 22.41697304 -46.06782623 20.00251061 -43.8125 17.375 C-43.214375 16.72273438 -42.61625 16.07046875 -42 15.3984375 C-40.40413665 13.48464825 -39.1750838 11.70321042 -37.875 9.6015625 C-28.70013232 -3.89282629 -14.8514505 -1.28738979 0 0 Z " fill="#03A9F4" transform="translate(490,14)"/>
<path d="M0 0 C1.78470703 0.11311523 1.78470703 0.11311523 3.60546875 0.22851562 C4.81847656 0.26912109 6.03148437 0.30972656 7.28125 0.3515625 C10.26842816 0.4574074 13.24738113 0.60508911 16.23046875 0.79101562 C14.83993595 3.90260714 13.20709458 6.09534572 10.8515625 8.54882812 C10.18278076 9.25273682 9.51399902 9.95664551 8.82495117 10.68188477 C7.36781267 12.19114051 5.90827609 13.69808411 4.4465332 15.20288086 C-0.14974956 19.9229029 -0.14974956 19.9229029 -4.16015625 25.13085938 C-8.58435306 31.39847152 -8.58435306 31.39847152 -12.99023438 32.18994141 C-18.62312308 32.6298082 -24.15235945 32.30530399 -29.76953125 31.79101562 C-28.13406879 26.72507094 -25.11014543 22.80003273 -22.01953125 18.54101562 C-20.98183784 17.09919539 -19.94538169 15.65648389 -18.91015625 14.21289062 C-18.3805127 13.49738037 -17.85086914 12.78187012 -17.30517578 12.04467773 C-15.70631182 9.80853167 -15.70631182 9.80853167 -14.51123047 7.25805664 C-10.92050645 0.39240297 -7.56305554 -0.19013268 0 0 Z " fill="#03A9F4" transform="translate(434.76953125,13.208984375)"/>
</svg>
